<?xml version="1.0" encoding="utf-8"?>
<svg version="1.1" xmlns="http://www.w3.org/2000/svg" viewBox="0 0 768 768">
	<style>
		path {
			fill: #0069ff;
		}
		@media (prefers-color-scheme: dark) {
			fill: #661ae6;
		}
	</style>
	<path d="M104,104h560c22.12,0,40,17.88,40,40v40c0,22.12-17.88,40-40,40H104c-22.12,0-40-17.88-40-40v-40
		C64,121.88,81.88,104,104,104z M104,264h560v320c0,44.12-35.88,80-80,80H184c-44.12,0-80-35.88-80-80V264z M264,364
		c0,11,9,20,20,20h200c11,0,20-9,20-20s-9-20-20-20H284C273,344,264,353,264,364z"/>
</svg>
